<mxfile host="Electron" agent="Mozilla/5.0 (X11; Linux x86_64) AppleWebKit/537.36 (KHTML, like Gecko) draw.io/25.0.1 Chrome/128.0.6613.186 Electron/32.2.6 Safari/537.36" version="25.0.1">
  <diagram name="Page-1" id="2YBvvXClWsGukQMizWep">
    <mxGraphModel dx="1120" dy="547" grid="1" gridSize="10" guides="1" tooltips="1" connect="1" arrows="1" fold="1" page="1" pageScale="1" pageWidth="850" pageHeight="1100" math="0" shadow="0">
      <root>
        <mxCell id="0" />
        <mxCell id="1" parent="0" />
        <mxCell id="u3WzdAwqLOBnF8deBetn-1" value="&lt;font style=&quot;font-size: 24px;&quot;&gt;TaskQuest Cloud Front-End UML Interaction Overview Diagram&lt;/font&gt;" style="text;html=1;align=center;verticalAlign=middle;whiteSpace=wrap;rounded=0;" vertex="1" parent="1">
          <mxGeometry x="80" width="690" height="30" as="geometry" />
        </mxCell>
        <mxCell id="u3WzdAwqLOBnF8deBetn-4" value="" style="ellipse;html=1;shape=startState;fillColor=#000000;strokeColor=#ff0000;" vertex="1" parent="1">
          <mxGeometry x="410" y="30" width="30" height="30" as="geometry" />
        </mxCell>
        <mxCell id="u3WzdAwqLOBnF8deBetn-5" value="" style="edgeStyle=orthogonalEdgeStyle;html=1;verticalAlign=bottom;endArrow=open;endSize=8;strokeColor=#ff0000;rounded=0;" edge="1" source="u3WzdAwqLOBnF8deBetn-4" parent="1">
          <mxGeometry relative="1" as="geometry">
            <mxPoint x="425" y="120" as="targetPoint" />
          </mxGeometry>
        </mxCell>
        <mxCell id="u3WzdAwqLOBnF8deBetn-6" value="The user&#39;s browser loads the HTML via service worker or web server. JS sets itself up by initialising objects, attaching event listeners, etc." style="text;html=1;align=center;verticalAlign=middle;whiteSpace=wrap;rounded=0;" vertex="1" parent="1">
          <mxGeometry x="440" y="60" width="200" height="50" as="geometry" />
        </mxCell>
        <mxCell id="u3WzdAwqLOBnF8deBetn-13" value="Create &quot;Tutorial&quot; project and populate it with to-dos" style="rounded=1;whiteSpace=wrap;html=1;arcSize=40;fontColor=#000000;fillColor=#ffffc0;strokeColor=#ff0000;" vertex="1" parent="1">
          <mxGeometry x="540" y="125" width="120" height="50" as="geometry" />
        </mxCell>
        <mxCell id="u3WzdAwqLOBnF8deBetn-14" value="" style="edgeStyle=orthogonalEdgeStyle;html=1;verticalAlign=bottom;endArrow=open;endSize=8;strokeColor=#ff0000;rounded=0;entryX=0.5;entryY=0;entryDx=0;entryDy=0;" edge="1" source="u3WzdAwqLOBnF8deBetn-13" parent="1" target="u3WzdAwqLOBnF8deBetn-17">
          <mxGeometry relative="1" as="geometry">
            <mxPoint x="700" y="250" as="targetPoint" />
          </mxGeometry>
        </mxCell>
        <mxCell id="u3WzdAwqLOBnF8deBetn-17" value="Render onboarding tutorial" style="rounded=1;whiteSpace=wrap;html=1;arcSize=40;fontColor=#000000;fillColor=#ffffc0;strokeColor=#ff0000;" vertex="1" parent="1">
          <mxGeometry x="540" y="200" width="120" height="40" as="geometry" />
        </mxCell>
        <mxCell id="u3WzdAwqLOBnF8deBetn-18" value="" style="edgeStyle=orthogonalEdgeStyle;html=1;verticalAlign=bottom;endArrow=open;endSize=8;strokeColor=#ff0000;rounded=0;exitX=0.5;exitY=1;exitDx=0;exitDy=0;entryX=0.75;entryY=0.5;entryDx=0;entryDy=0;entryPerimeter=0;" edge="1" source="u3WzdAwqLOBnF8deBetn-17" parent="1" target="u3WzdAwqLOBnF8deBetn-38">
          <mxGeometry relative="1" as="geometry">
            <mxPoint x="440" y="280" as="targetPoint" />
          </mxGeometry>
        </mxCell>
        <mxCell id="u3WzdAwqLOBnF8deBetn-19" value="intro.js" style="shape=folder;fontStyle=1;spacingTop=10;tabWidth=40;tabHeight=14;tabPosition=left;html=1;whiteSpace=wrap;" vertex="1" parent="1">
          <mxGeometry x="390" y="190" width="70" height="50" as="geometry" />
        </mxCell>
        <mxCell id="u3WzdAwqLOBnF8deBetn-20" value="Use" style="endArrow=open;endSize=12;dashed=1;html=1;rounded=0;entryX=0;entryY=0;entryDx=70;entryDy=32;entryPerimeter=0;exitX=0;exitY=0.5;exitDx=0;exitDy=0;" edge="1" parent="1" source="u3WzdAwqLOBnF8deBetn-17" target="u3WzdAwqLOBnF8deBetn-19">
          <mxGeometry width="160" relative="1" as="geometry">
            <mxPoint x="430" y="270" as="sourcePoint" />
            <mxPoint x="590" y="270" as="targetPoint" />
          </mxGeometry>
        </mxCell>
        <mxCell id="u3WzdAwqLOBnF8deBetn-25" value="Get JSON data (from local storage)" style="rounded=1;whiteSpace=wrap;html=1;arcSize=40;fontColor=#000000;fillColor=#ffffc0;strokeColor=#ff0000;" vertex="1" parent="1">
          <mxGeometry x="220" y="130" width="120" height="40" as="geometry" />
        </mxCell>
        <mxCell id="u3WzdAwqLOBnF8deBetn-26" value="" style="edgeStyle=orthogonalEdgeStyle;html=1;verticalAlign=bottom;endArrow=open;endSize=8;strokeColor=#ff0000;rounded=0;entryX=0.5;entryY=0;entryDx=0;entryDy=0;" edge="1" source="u3WzdAwqLOBnF8deBetn-25" parent="1" target="u3WzdAwqLOBnF8deBetn-29">
          <mxGeometry relative="1" as="geometry">
            <mxPoint x="150" y="235" as="targetPoint" />
          </mxGeometry>
        </mxCell>
        <mxCell id="u3WzdAwqLOBnF8deBetn-29" value="Initialise Project and ToDo objects" style="rounded=1;whiteSpace=wrap;html=1;arcSize=40;fontColor=#000000;fillColor=#ffffc0;strokeColor=#ff0000;" vertex="1" parent="1">
          <mxGeometry x="220" y="200" width="120" height="40" as="geometry" />
        </mxCell>
        <mxCell id="u3WzdAwqLOBnF8deBetn-30" value="" style="edgeStyle=orthogonalEdgeStyle;html=1;verticalAlign=bottom;endArrow=open;endSize=8;strokeColor=#ff0000;rounded=0;exitX=0.5;exitY=1;exitDx=0;exitDy=0;entryX=0.25;entryY=0.5;entryDx=0;entryDy=0;entryPerimeter=0;" edge="1" source="u3WzdAwqLOBnF8deBetn-29" parent="1" target="u3WzdAwqLOBnF8deBetn-38">
          <mxGeometry relative="1" as="geometry">
            <mxPoint x="400" y="280" as="targetPoint" />
          </mxGeometry>
        </mxCell>
        <mxCell id="u3WzdAwqLOBnF8deBetn-34" value="First time?" style="rhombus;whiteSpace=wrap;html=1;fontColor=#000000;fillColor=#ffffc0;strokeColor=#ff0000;" vertex="1" parent="1">
          <mxGeometry x="385" y="120" width="80" height="40" as="geometry" />
        </mxCell>
        <mxCell id="u3WzdAwqLOBnF8deBetn-35" value="Yes" style="edgeStyle=orthogonalEdgeStyle;html=1;align=left;verticalAlign=bottom;endArrow=open;endSize=8;strokeColor=#ff0000;rounded=0;exitX=1;exitY=0.5;exitDx=0;exitDy=0;entryX=0;entryY=0.25;entryDx=0;entryDy=0;" edge="1" source="u3WzdAwqLOBnF8deBetn-34" parent="1" target="u3WzdAwqLOBnF8deBetn-13">
          <mxGeometry x="-1" relative="1" as="geometry">
            <mxPoint x="465" y="340" as="targetPoint" />
          </mxGeometry>
        </mxCell>
        <mxCell id="u3WzdAwqLOBnF8deBetn-36" value="No" style="edgeStyle=orthogonalEdgeStyle;html=1;align=left;verticalAlign=top;endArrow=open;endSize=8;strokeColor=#ff0000;rounded=0;entryX=1;entryY=0.25;entryDx=0;entryDy=0;" edge="1" source="u3WzdAwqLOBnF8deBetn-34" parent="1" target="u3WzdAwqLOBnF8deBetn-25">
          <mxGeometry x="-0.2308" y="-20" relative="1" as="geometry">
            <mxPoint x="325" y="420" as="targetPoint" />
            <mxPoint as="offset" />
          </mxGeometry>
        </mxCell>
        <mxCell id="u3WzdAwqLOBnF8deBetn-38" value="" style="shape=line;html=1;strokeWidth=6;strokeColor=#ff0000;" vertex="1" parent="1">
          <mxGeometry x="365" y="270" width="120" height="10" as="geometry" />
        </mxCell>
        <mxCell id="u3WzdAwqLOBnF8deBetn-39" value="" style="edgeStyle=orthogonalEdgeStyle;html=1;verticalAlign=bottom;endArrow=open;endSize=8;strokeColor=#ff0000;rounded=0;entryX=0.499;entryY=-0.003;entryDx=0;entryDy=0;entryPerimeter=0;" edge="1" source="u3WzdAwqLOBnF8deBetn-38" parent="1" target="u3WzdAwqLOBnF8deBetn-41">
          <mxGeometry relative="1" as="geometry">
            <mxPoint x="425" y="400" as="targetPoint" />
          </mxGeometry>
        </mxCell>
        <mxCell id="u3WzdAwqLOBnF8deBetn-41" value="sd: Project Creation" style="shape=umlFrame;whiteSpace=wrap;html=1;pointerEvents=0;" vertex="1" parent="1">
          <mxGeometry x="45" y="310" width="760" height="310" as="geometry" />
        </mxCell>
      </root>
    </mxGraphModel>
  </diagram>
</mxfile>
